<svg width="70" height="70" viewBox="0 0 70 70" fill="none" xmlns="http://www.w3.org/2000/svg">
<g clip-path="url(#clip0_1522_2)">
<path d="M44.7222 7.77777H13.6111C12.5797 7.77777 11.5906 8.18749 10.8613 8.9168C10.1319 9.64611 9.72223 10.6353 9.72223 11.6667V58.3333C9.72223 59.3647 10.1319 60.3539 10.8613 61.0832C11.5906 61.8125 12.5797 62.2222 13.6111 62.2222H44.7222C45.7536 62.2222 46.7428 61.8125 47.4721 61.0832C48.2014 60.3539 48.6111 59.3647 48.6111 58.3333V46.6667H30.3917C29.876 46.6667 29.3814 46.4618 29.0167 46.0971C28.6521 45.7325 28.4472 45.2379 28.4472 44.7222C28.4472 44.2065 28.6521 43.7119 29.0167 43.3473C29.3814 42.9826 29.876 42.7778 30.3917 42.7778H48.6111V11.6667C48.6111 10.6353 48.2014 9.64611 47.4721 8.9168C46.7428 8.18749 45.7536 7.77777 44.7222 7.77777Z" fill="#3D3D3D"/>
<path d="M54.7556 33.6C54.3836 33.2815 53.9051 33.115 53.4157 33.1339C52.9264 33.1528 52.4621 33.3557 52.1159 33.702C51.7696 34.0483 51.5667 34.5125 51.5478 35.0018C51.5289 35.4912 51.6953 35.9697 52.0139 36.3417L58.5861 42.7778H48.6111V46.6667H58.5861L52.0139 53.3944C51.8103 53.5688 51.645 53.7833 51.5283 54.0245C51.4116 54.2657 51.346 54.5285 51.3357 54.7963C51.3253 55.0641 51.3705 55.3311 51.4682 55.5806C51.566 55.8302 51.7142 56.0568 51.9037 56.2463C52.0932 56.4358 52.3199 56.584 52.5694 56.6818C52.8189 56.7796 53.0859 56.8247 53.3537 56.8143C53.6215 56.804 53.8843 56.7384 54.1255 56.6217C54.3667 56.505 54.5812 56.3397 54.7556 56.1361L66.1111 44.8583L54.7556 33.6Z" fill="#3D3D3D"/>
</g>
<defs>
<clipPath id="clip0_1522_2">
<rect width="70" height="70" fill="white"/>
</clipPath>
</defs>
</svg>
